<svg xmlns="http://www.w3.org/2000/svg" viewBox="0 0 32 32" width="32" height="32">
  <rect width="32" height="32" rx="6" fill="#2D1B69"/>
  <!-- row 1 -->
  <rect x="3"  y="4"  width="5" height="5" rx="1" fill="#F5C200"/>
  <rect x="10" y="4"  width="5" height="5" rx="1" fill="#F5C200"/>
  <rect x="17" y="4"  width="5" height="5" rx="1" fill="#F5C200"/>
  <rect x="24" y="4"  width="5" height="5" rx="1" fill="#7C5FF5" opacity="0.6"/>
  <!-- row 2 -->
  <rect x="3"  y="11" width="5" height="5" rx="1" fill="#F5C200"/>
  <rect x="10" y="11" width="5" height="5" rx="1" fill="#1E1040"/>
  <rect x="17" y="11" width="5" height="5" rx="1" fill="#F5C200"/>
  <rect x="24" y="11" width="5" height="5" rx="1" fill="#F5C200"/>
  <!-- row 3: bars -->
  <rect x="3"  y="19" width="5" height="4"  rx="1" fill="#A78BFA"/>
  <rect x="10" y="17" width="5" height="6"  rx="1" fill="#A78BFA"/>
  <rect x="17" y="15" width="5" height="8"  rx="1" fill="#F5C200"/>
  <rect x="24" y="12" width="5" height="11" rx="1" fill="#F5C200"/>
  <!-- baseline -->
  <rect x="2" y="25" width="28" height="2" rx="1" fill="#F5C200" opacity="0.35"/>
</svg>
